<?xml version="1.0" encoding="UTF-8" standalone="no" ?>
<!DOCTYPE svg PUBLIC "-//W3C//DTD SVG 1.1//EN" "http://www.w3.org/Graphics/SVG/1.1/DTD/svg11.dtd">
<svg xmlns="http://www.w3.org/2000/svg" xmlns:xlink="http://www.w3.org/1999/xlink" version="1.1" width="1280" height="1024" viewBox="0 0 1280 1024" xml:space="preserve">
<desc>Created with Fabric.js 5.3.0</desc>
<defs>
</defs>
<g transform="matrix(1 0 0 1 640 512)" id="background-logo"  >
<rect style="stroke: none; stroke-width: 0; stroke-dasharray: none; stroke-linecap: butt; stroke-dashoffset: 0; stroke-linejoin: miter; stroke-miterlimit: 4; fill: rgb(255,255,255); fill-opacity: 0; fill-rule: nonzero; opacity: 1;"  paint-order="stroke"  x="-640" y="-512" rx="0" ry="0" width="1280" height="1024" />
</g>
<g transform="matrix(1.9211538461538462 0 0 1.9211538461538462 640 430.82364951039386)" id="logo-logo"  >
<g style=""  paint-order="stroke"   >
		<g transform="matrix(1.230293787872562 0 0 -1.230293787872562 -21.974469743401812 24.74508349954897)"  >
<path style="stroke: none; stroke-width: 1; stroke-dasharray: none; stroke-linecap: butt; stroke-dashoffset: 0; stroke-linejoin: miter; stroke-miterlimit: 4; fill: rgb(0,187,215); fill-rule: nonzero; opacity: 1;"  paint-order="stroke"  transform=" translate(58.51585638395631, -49.6515)" d="M 0 0 C -11.929 -6.996 -25.828 -10.992 -40.667 -10.992 C -85.253 -10.992 -121.41 25.164999999999996 -121.41 69.779 C -121.41 84.565 -117.441 98.392 -110.49 110.29499999999999 C -115.469 83.975 -110.145 55.62899999999999 -88.77699999999999 42.07599999999999 C -67.40799999999999 28.51899999999999 -42.56299999999999 32.166 -34.35499999999999 31.821999999999996 C -20.38199999999999 31.206999999999997 -14.02099999999999 17.647999999999996 -20.99699999999999 14.149999999999995 C -27.45699999999999 10.918999999999995 -29.62499999999999 15.874999999999995 -36.59999999999999 19.277999999999995 C -41.70299999999999 21.788999999999994 -51.237999999999985 23.905999999999995 -54.566999999999986 15.380999999999995 C -57.15399999999999 8.801999999999996 -48.749999999999986 3.6749999999999954 -37.01899999999999 3.6749999999999954 C -28.26999999999999 3.6749999999999954 -14.02099999999999 5.963999999999995 -4.977999999999994 11.118999999999996 C 4.684 16.612 7.74 6.484 0 0" stroke-linecap="round" />
</g>
		<g transform="matrix(1.230293787872562 0 0 -1.230293787872562 15.177765372847489 -73.21496786036434)"  >
<path style="stroke: none; stroke-width: 1; stroke-dasharray: none; stroke-linecap: butt; stroke-dashoffset: 0; stroke-linejoin: miter; stroke-miterlimit: 4; fill: rgb(149,202,87); fill-rule: nonzero; opacity: 1;"  paint-order="stroke"  transform=" translate(58.75749999999999, -21.2465)" d="M 0 0 C -12.619 14.813 -45.719 14.567 -58.019 11.535 C -70.341 8.503 -95.803 7.4830000000000005 -103.50399999999999 22.576999999999998 C -92.01799999999999 27.404999999999998 -72.38799999999999 31.006999999999998 -53.89999999999999 30.264999999999997 C -76.50299999999999 36.946999999999996 -102.579 33.668 -117.51499999999999 27.801 C -104.40399999999998 37.066 -88.38299999999998 42.492999999999995 -71.10699999999999 42.492999999999995 C -40.348 42.493 -13.605 25.287 0 0" stroke-linecap="round" />
</g>
		<g transform="matrix(1.230293787872562 0 0 -1.230293787872562 87.52826730316309 -47.01401620693633)"  >
<path style="stroke: none; stroke-width: 1; stroke-dasharray: none; stroke-linecap: butt; stroke-dashoffset: 0; stroke-linejoin: miter; stroke-miterlimit: 4; fill: rgb(35,31,32); fill-rule: nonzero; opacity: 1;"  paint-order="stroke"  transform=" translate(-0.05, 0.05)" d="M 0 0 L 0.024 -0.022 C 0.05 -0.047 0.077 -0.072 0.1 -0.1" stroke-linecap="round" />
</g>
		<g transform="matrix(1.230293787872562 0 0 -1.230293787872562 13.061498611509023 -34.16113700503169)"  >
<path style="stroke: none; stroke-width: 1; stroke-dasharray: none; stroke-linecap: butt; stroke-dashoffset: 0; stroke-linejoin: miter; stroke-miterlimit: 4; fill: rgb(58,159,72); fill-rule: nonzero; opacity: 1;"  paint-order="stroke"  transform=" translate(70.1387312257277, -27.7525)" d="M 0 0 C -10.154 16.266 -33.247 24.373 -64.795 17.497 C -109.973 7.638 -146.548 27.750999999999998 -139.375 55.505 C -113.276 33.1 -86.978 36.204 -67.259 38.15 C -47.542 40.073 -0.122 41.231 0 0" stroke-linecap="round" />
</g>
		<g transform="matrix(1.230293787872562 0 0 -1.230293787872562 11.15414254914117 20.754994686720693)"  >
<path style="stroke: none; stroke-width: 1; stroke-dasharray: none; stroke-linecap: butt; stroke-dashoffset: 0; stroke-linejoin: miter; stroke-miterlimit: 4; fill: rgb(0,130,66); fill-rule: nonzero; opacity: 1;"  paint-order="stroke"  transform=" translate(46.42735691311174, -41.775499999999994)" d="M 0 0 C 6.063 18.63 3.575 40.769 -43.108 35.885 C -88.40799999999999 31.179 -114.50999999999999 49.614999999999995 -112.662 83.55099999999999 C -101.914 65.064 -62.97200000000001 59.34699999999999 -32.953 65.68299999999999 C 8.946 74.507 43.032 48.013 0 0" stroke-linecap="round" />
</g>
</g>
</g>
<g transform="matrix(1.9211538461538462 0 0 1.9211538461538462 639.2374380194766 709.298187593021)" id="text-logo"  >
<g style=""  paint-order="stroke"   >
		<g transform="matrix(1 0 0 1 0 0)" id="text-logo-path-0"  >
<path style="stroke: none; stroke-width: 0; stroke-dasharray: none; stroke-linecap: butt; stroke-dashoffset: 0; stroke-linejoin: miter; stroke-miterlimit: 4; fill: rgb(4,132,68); fill-rule: nonzero; opacity: 1;"  paint-order="stroke"  transform=" translate(-95.83785942842485, 22.4)" d="M 3.26 -38.85 L 9.41 -23.62 L 26.37 -23.62 L 18.05 -43.65 C 17.73 -44.29 16.96 -44.8 16.26 -44.8 L 7.3 -44.8 C 3.71 -44.8 1.92 -42.18 3.26 -38.85 Z M 9.47 -23.42 L 10.75 -20.22 L 27.78 -20.22 L 26.5 -23.42 Z M 9.47 -3.2 L 9.47 -3.01 L 41.54 -3.01 C 41.86 -3.52 42.11 -4.1 42.24 -4.67 L 32.32 -4.67 C 32.06 -4.54 31.87 -4.48 31.62 -4.48 L 10.75 -4.48 C 10.05 -4.48 9.47 -3.9 9.47 -3.2 Z M 39.49 -0.96 L 9.54 -0.96 C 9.66 -0.38 10.18 0 10.75 0 L 36.1 0 C 37.38 0 38.53 -0.32 39.49 -0.96 Z M 10.94 -19.65 L 11.33 -18.75 C 11.65 -18.05 12.03 -17.34 12.54 -16.7 L 42.5 -16.7 L 42.5 -19.65 L 32.9 -19.65 L 32.9 -18.56 C 32.9 -17.86 32.32 -17.28 31.62 -17.28 L 29.82 -17.28 C 29.38 -17.28 28.93 -17.54 28.74 -17.98 L 28.03 -19.65 Z M 13.18 -15.94 C 14.34 -14.78 15.74 -13.82 17.28 -13.31 L 42.5 -13.31 L 42.5 -15.94 Z M 32.7 -12.16 C 32.83 -11.97 32.9 -11.78 32.9 -11.52 L 32.9 -9.98 L 42.5 -9.98 L 42.5 -12.16 Z M 32.9 -6.34 L 42.5 -6.34 L 42.5 -8.45 L 32.9 -8.45 Z M 32.9 -20.22 L 42.5 -20.22 L 42.5 -23.42 L 32.9 -23.42 Z M 32.9 -43.52 L 32.9 -23.62 L 42.5 -23.62 L 42.5 -38.4 C 42.5 -41.98 39.68 -44.8 36.1 -44.8 L 34.18 -44.8 C 33.47 -44.8 32.9 -44.22 32.9 -43.52 Z M 50.75 -38.4 L 50.75 -30.08 C 50.75 -29.38 51.33 -28.8 52.03 -28.8 L 78.27 -28.8 C 78.98 -28.8 79.55 -28.22 79.55 -27.52 L 79.55 -23.62 L 89.15 -23.62 L 89.15 -38.4 C 89.15 -41.98 86.34 -44.8 82.75 -44.8 L 57.15 -44.8 C 53.57 -44.8 50.75 -41.98 50.75 -38.4 Z M 52.67 -3.2 L 52.67 -3.01 L 88.19 -3.01 C 88.51 -3.52 88.77 -4.1 88.9 -4.67 L 78.98 -4.67 C 78.72 -4.54 78.53 -4.48 78.27 -4.48 L 53.95 -4.48 C 53.25 -4.48 52.67 -3.9 52.67 -3.2 Z M 86.14 -0.96 L 52.74 -0.96 C 52.86 -0.38 53.38 0 53.95 0 L 82.75 0 C 84.03 0 85.18 -0.32 86.14 -0.96 Z M 59.78 -17.92 L 59.78 -17.28 C 59.78 -17.09 59.84 -16.9 59.9 -16.7 L 89.15 -16.7 L 89.15 -19.65 L 79.23 -19.65 C 78.98 -19.39 78.66 -19.2 78.27 -19.2 L 61.06 -19.2 C 60.35 -19.2 59.78 -18.62 59.78 -17.92 Z M 78.66 -15.94 C 79.17 -15.74 79.55 -15.3 79.55 -14.72 L 79.55 -13.31 L 89.15 -13.31 L 89.15 -15.94 Z M 79.55 -20.22 L 89.15 -20.22 L 89.15 -23.42 L 79.55 -23.42 Z M 79.55 -6.34 L 89.15 -6.34 L 89.15 -8.45 L 79.55 -8.45 Z M 79.55 -9.98 L 89.15 -9.98 L 89.15 -12.16 L 79.55 -12.16 Z M 97.41 -38.4 L 97.41 -23.62 L 113.41 -23.62 L 113.41 -27.52 C 113.41 -28.22 113.98 -28.8 114.69 -28.8 L 137.73 -28.8 C 138.43 -28.8 139.01 -29.38 139.01 -30.08 L 139.01 -38.4 C 139.01 -41.98 136.19 -44.8 132.61 -44.8 L 103.81 -44.8 C 100.22 -44.8 97.41 -41.98 97.41 -38.4 Z M 97.41 -6.34 L 113.41 -6.34 L 113.41 -8.45 L 97.41 -8.45 Z M 97.41 -9.98 L 113.41 -9.98 L 113.41 -12.16 L 97.41 -12.16 Z M 97.41 -13.31 L 113.41 -13.31 L 113.41 -14.72 C 113.41 -15.3 113.79 -15.74 114.3 -15.94 L 97.41 -15.94 Z M 97.41 -16.7 L 139.01 -16.7 L 139.01 -17.92 C 139.01 -18.62 138.43 -19.2 137.73 -19.2 L 114.69 -19.2 C 114.3 -19.2 113.98 -19.39 113.73 -19.65 L 97.41 -19.65 Z M 97.41 -20.22 L 113.41 -20.22 L 113.41 -23.42 L 97.41 -23.42 Z M 113.98 -4.67 L 97.66 -4.67 C 97.79 -4.1 98.05 -3.52 98.37 -3.01 L 138.05 -3.01 C 138.37 -3.52 138.62 -4.1 138.75 -4.67 L 128.83 -4.67 C 128.83 -4.67 128.45 -4.48 128.13 -4.48 L 114.69 -4.48 C 114.37 -4.48 113.98 -4.67 113.98 -4.67 Z M 136 -0.96 L 100.42 -0.96 C 101.38 -0.32 102.53 0 103.81 0 L 132.61 0 C 133.89 0 135.04 -0.32 136 -0.96 Z M 128.51 -15.94 C 129.02 -15.74 129.41 -15.3 129.41 -14.72 L 129.41 -13.31 L 139.01 -13.31 L 139.01 -15.94 Z M 129.41 -6.34 L 139.01 -6.34 L 139.01 -8.45 L 129.41 -8.45 Z M 129.41 -9.98 L 139.01 -9.98 L 139.01 -12.16 L 129.41 -12.16 Z M 176.19 -27.71 L 173.7 -23.62 L 178.18 -23.62 L 178.62 -24.38 C 178.94 -24.96 179.26 -24.9 179.26 -24.19 L 179.26 -23.62 L 188.86 -23.62 L 188.86 -38.4 C 188.86 -41.98 186.05 -44.8 182.46 -44.8 L 153.66 -44.8 C 150.08 -44.8 147.26 -41.98 147.26 -38.4 L 147.26 -23.62 L 163.26 -23.62 L 163.26 -27.52 C 163.26 -28.22 163.84 -28.8 164.54 -28.8 L 175.55 -28.8 C 176.26 -28.8 176.51 -28.29 176.19 -27.71 Z M 167.49 -6.34 L 168.83 -8.45 L 164.35 -8.45 L 163.9 -7.74 C 163.52 -7.17 163.26 -7.23 163.26 -7.94 L 163.26 -8.45 L 147.26 -8.45 L 147.26 -6.34 Z M 147.26 -9.98 L 163.26 -9.98 L 163.26 -12.16 L 147.26 -12.16 Z M 147.26 -13.31 L 163.26 -13.31 L 163.26 -15.94 L 147.26 -15.94 Z M 147.26 -16.7 L 163.26 -16.7 L 163.26 -19.65 L 147.26 -19.65 Z M 147.26 -20.22 L 163.26 -20.22 L 163.26 -23.42 L 147.26 -23.42 Z M 167.1 -4.67 L 147.52 -4.67 C 147.65 -4.1 147.9 -3.52 148.22 -3.01 L 187.9 -3.01 C 188.22 -3.52 188.48 -4.1 188.61 -4.67 L 178.69 -4.67 C 178.5 -4.54 178.24 -4.48 177.98 -4.48 L 167.68 -4.48 C 167.42 -4.48 167.23 -4.54 167.1 -4.67 Z M 185.86 -0.96 L 150.27 -0.96 C 151.23 -0.32 152.38 0 153.66 0 L 182.46 0 C 183.74 0 184.9 -0.32 185.86 -0.96 Z M 173.89 -16.7 L 175.68 -19.65 L 171.2 -19.65 L 169.41 -16.7 Z M 179.26 -6.34 L 188.86 -6.34 L 188.86 -8.45 L 179.26 -8.45 Z M 179.26 -9.98 L 188.86 -9.98 L 188.86 -12.16 L 179.26 -12.16 Z M 179.26 -13.31 L 188.86 -13.31 L 188.86 -15.94 L 179.26 -15.94 Z M 179.26 -16.7 L 188.86 -16.7 L 188.86 -19.65 L 179.26 -19.65 Z M 179.26 -20.22 L 188.86 -20.22 L 188.86 -23.42 L 179.26 -23.42 Z M 171.78 -13.31 L 173.44 -15.94 L 168.96 -15.94 L 167.36 -13.31 Z M 169.73 -9.98 L 171.07 -12.16 L 166.59 -12.16 L 165.25 -9.98 Z M 173.57 -23.42 L 171.58 -20.22 L 176.06 -20.22 L 178.05 -23.42 Z" stroke-linecap="round" />
</g>
</g>
</g>
</svg>